<?xml version="1.0" encoding="utf-8"?>
<svg height="800px" width="800px" version="1.1" id="_x32_" xmlns="http://www.w3.org/2000/svg" viewBox="0 0 512 512" fill="#000000">
  <rect x="0.881" y="0.88" width="510.238" height="510.238" style="stroke-width: 0; stroke: rgb(30, 29, 29); fill: rgb(23, 23, 23);" rx="74.209" ry="74.209"/>
  <g id="SVGRepo_bgCarrier" stroke-width="0"/>
  <g id="SVGRepo_tracerCarrier" stroke-linecap="round" stroke-linejoin="round"/>
  <g id="SVGRepo_iconCarrier" transform="matrix(0.787393, 0, 0, 0.787393, 54.427422, 54.427322)">
    <style type="text/css"> .st0{fill:#fcfcfc;} </style>
    <g>
      <path class="st0" d="M 483.699 393.506 C 459.138 375.352 438.585 349.146 423.287 322.312 C 429.195 310.6 432.788 296.742 432.788 280.113 C 432.788 166.729 310.141 106.555 219.828 96.807 C 197.884 94.442 177.569 90.731 160.059 86.807 C 162.712 82.002 164.357 76.56 164.357 70.687 C 164.357 52.16 149.329 37.133 130.802 37.133 C 112.606 37.133 97.876 51.651 97.35 69.712 C 65.416 71.908 1.647 100.691 -2.202 112.251 C -6.125 124.083 -13.873 129.66 21.495 159.518 C 21.495 159.518 112.537 198.277 134.269 210.684 C 166.671 229.204 137.743 272.012 107.656 278.954 C 77.576 285.894 63.694 315.982 82.204 334.493 C 91.46 343.749 85.484 312.534 93.773 327.551 C 102.07 342.562 107.655 327.551 107.655 327.551 C 107.655 327.551 109.495 298.566 130.801 297.472 C 175.925 295.158 188.655 255.816 212.953 317.134 C 226.429 351.154 219.895 379.624 240.719 400.447 C 287.003 446.731 243.033 446.731 224.523 446.731 C 206.013 446.731 179.035 460.046 192.129 469.861 C 201.385 476.811 196.757 474.497 226.837 474.497 C 256.915 474.497 298.572 474.497 298.572 474.497 C 298.572 474.497 310.141 455.978 296.258 439.781 C 282.376 423.585 294.538 406.023 300.886 395.819 C 306.81 386.31 366.435 381.623 403.464 348.094 C 413.279 363.164 424.084 376.309 435.103 384.241 C 459.36 401.717 480.582 415.262 484.93 426.331 C 494.49 450.698 445.519 461.334 330.966 462.927 C 320.558 462.927 316.507 474.496 326.338 474.496 C 555.436 474.497 536.926 432.848 483.699 393.506 Z" style="stroke-width: 1.022;"/>
    </g>
  </g>
</svg>